<svg width="22" height="23" viewBox="0 0 22 23" fill="none" xmlns="http://www.w3.org/2000/svg">
<path fill-rule="evenodd" clip-rule="evenodd" d="M12.255 2.20432C11.4148 1.52071 10.2067 1.53283 9.38033 2.23315L2.19183 8.32529C1.91159 8.5628 1.75 8.91155 1.75 9.2789V20.0504C1.75 20.7407 2.30964 21.3004 3 21.3004H5.53061C6.22097 21.3004 6.78061 20.7407 6.78061 20.0504V18.239C6.78061 16.7203 8.01183 15.489 9.53061 15.489H12.0612C13.58 15.489 14.8112 16.7203 14.8112 18.239V20.0504C14.8112 20.7407 15.3709 21.3004 16.0612 21.3004H19C19.6904 21.3004 20.25 20.7407 20.25 20.0504V9.30338C20.25 8.92726 20.0806 8.57113 19.7889 8.33376L12.255 2.20432ZM8.41053 1.08883C9.7878 -0.0783866 11.8013 -0.0985826 13.2017 1.04076L20.7355 7.17021C21.3774 7.69242 21.75 8.47591 21.75 9.30338V20.0504C21.75 21.5691 20.5188 22.8004 19 22.8004H16.0612C14.5424 22.8004 13.3112 21.5691 13.3112 20.0504V18.239C13.3112 17.5487 12.7516 16.989 12.0612 16.989H9.53061C8.84026 16.989 8.28061 17.5487 8.28061 18.239V20.0504C8.28061 21.5691 7.04939 22.8004 5.53061 22.8004H3C1.48122 22.8004 0.25 21.5691 0.25 20.0504V9.2789C0.25 8.47073 0.605493 7.70347 1.22203 7.18097L8.41053 1.08883Z" fill="white"/>
</svg>
