<svg width="32" height="33" viewBox="0 0 32 33" fill="none" xmlns="http://www.w3.org/2000/svg">
<path fill-rule="evenodd" clip-rule="evenodd" d="M15.4762 6.25C10.1046 6.25 5.75 10.6046 5.75 15.9762C5.75 21.3478 10.1046 25.7024 15.4762 25.7024C20.8478 25.7024 25.2024 21.3478 25.2024 15.9762C25.2024 10.6046 20.8478 6.25 15.4762 6.25ZM4.25 15.9762C4.25 9.77614 9.27614 4.75 15.4762 4.75C21.6762 4.75 26.7024 9.77614 26.7024 15.9762C26.7024 22.1762 21.6762 27.2024 15.4762 27.2024C9.27614 27.2024 4.25 22.1762 4.25 15.9762ZM23.8506 24.3506C24.1435 24.0577 24.6184 24.0577 24.9113 24.3506L27.5303 26.9697C27.8232 27.2626 27.8232 27.7374 27.5303 28.0303C27.2374 28.3232 26.7626 28.3232 26.4697 28.0303L23.8506 25.4113C23.5577 25.1184 23.5577 24.6435 23.8506 24.3506Z" fill="#8B8B8B"/>
</svg>
