<svg width="19" height="23" viewBox="0 0 19 23" fill="none" xmlns="http://www.w3.org/2000/svg">
<path fill-rule="evenodd" clip-rule="evenodd" d="M9.5 10.125C11.7368 10.125 13.55 8.27817 13.55 6C13.55 3.72183 11.7368 1.875 9.5 1.875C7.26325 1.875 5.45 3.72183 5.45 6C5.45 8.27817 7.26325 10.125 9.5 10.125ZM9.5 11.5C12.4823 11.5 14.9 9.03757 14.9 6C14.9 2.96243 12.4823 0.5 9.5 0.5C6.51766 0.5 4.1 2.96243 4.1 6C4.1 9.03757 6.51766 11.5 9.5 11.5ZM4.45647 21.125H14.5435C15.983 21.125 17.15 19.9364 17.15 18.4703C17.15 17.2048 16.273 16.1153 15.0547 15.8671L11.0003 15.0412C10.0099 14.8394 8.9901 14.8394 7.99971 15.0412L3.9453 15.8671C2.72697 16.1153 1.85 17.2048 1.85 18.4703C1.85 19.9364 3.01696 21.125 4.45647 21.125ZM3.68054 14.5188C1.83119 14.8955 0.5 16.5494 0.5 18.4703C0.5 20.6958 2.27137 22.5 4.45647 22.5H14.5435C16.7286 22.5 18.5 20.6958 18.5 18.4703C18.5 16.5494 17.1688 14.8955 15.3195 14.5188L11.265 13.6929C10.0999 13.4555 8.90011 13.4555 7.73495 13.6929L3.68054 14.5188Z" fill="#8B8B8B"/>
</svg>
